<svg xmlns="http://www.w3.org/2000/svg" width="408.49" height="250.26" viewBox="0 0 408.49 250.26">
  <defs>
    <style>
      .cls-1 {
        fill: #1c404c;
      }

      .cls-2 {
        fill: #d7d7d9;
      }

      .cls-3 {
        fill: #8e8e8e;
      }

      .cls-4 {
        fill: #a7b7b2;
      }
    </style>
  </defs>
  <g id="icons">
    <g>
      <path class="cls-1" d="M108.24,86,80.3,102Q67,102,58.42,87.53L38.1,101l-7.42.59q-13.09,0-21.89-7.72T0,75.81A24.24,24.24,0,0,1,4.2,62.62,30.53,30.53,0,0,1,16.61,52l36.73-.78V36.54q0-14.46-8.79-19.15a18.93,18.93,0,0,0-7.23,1.95L31.65,41.23l-22.27.19A77.45,77.45,0,0,1,6.06,19.54L6.84,10A169.55,169.55,0,0,1,35.07,2.74Q50.81,0,60.37,0q19,0,29.9,14.46,2.34,3.51,2.34,18V71.51c0,4,1.57,6.06,4.69,6.06l6.45-.2,3.91-.19ZM38.3,72.88a11.94,11.94,0,0,0,2.93,8.21l12.11-2.54V63.89Q38.3,63.89,38.3,72.88Z"/>
      <rect class="cls-2" x="46.31" y="30.46" width="315.87" height="213.55" rx="5"/>
      <path class="cls-3" d="M357.18,245H51.31a6,6,0,0,1-6-6V35.46a6,6,0,0,1,6-6H357.18a6,6,0,0,1,6,6V239A6,6,0,0,1,357.18,245ZM51.31,31.46a4,4,0,0,0-4,4V239a4,4,0,0,0,4,4H357.18a4,4,0,0,0,4-4V35.46a4,4,0,0,0-4-4Z"/>
      <path class="cls-3" d="M235,236v.62a6.51,6.51,0,0,1-6.51,6.51H178.4a6.52,6.52,0,0,1-6.52-6.51V236H0v7.75a6.52,6.52,0,0,0,6.51,6.51H402a6.51,6.51,0,0,0,6.51-6.51V236Z"/>
      <circle class="cls-3" cx="204.25" cy="44.42" r="4.44"/>
      <g>
        <path class="cls-1" d="M347.9,186.9a53.55,53.55,0,1,1,53.55-53.54A53.61,53.61,0,0,1,347.9,186.9Zm0-105.09a51.55,51.55,0,1,0,51.55,51.55A51.61,51.61,0,0,0,347.9,81.81Z"/>
        <polygon class="cls-1" points="345.88 149.22 324.72 128.06 326.14 126.65 345.89 146.4 407.08 85.73 408.49 87.15 345.88 149.22"/>
      </g>
      <path class="cls-3" d="M266.58,220.09H255.36a2.88,2.88,0,0,1-2.87-2.88V206a2.88,2.88,0,0,1,2.87-2.87h11.22a2.88,2.88,0,0,1,2.87,2.87v11.21A2.88,2.88,0,0,1,266.58,220.09Zm-11.22-16.21a2.12,2.12,0,0,0-2.12,2.12v11.21a2.12,2.12,0,0,0,2.12,2.13h11.22a2.12,2.12,0,0,0,2.12-2.13V206a2.12,2.12,0,0,0-2.12-2.12Z"/>
      <g>
        <path class="cls-3" d="M258.11,208.62h.75v5.85h-.75Z"/>
        <path class="cls-3" d="M263.14,213.86a1.94,1.94,0,0,1-.61.54,1.62,1.62,0,0,1-.81.2,1.73,1.73,0,0,1-.81-.18,1.59,1.59,0,0,1-.56-.47,1.94,1.94,0,0,1-.33-.71,3.46,3.46,0,0,1-.1-.87,3.12,3.12,0,0,1,.13-1,2.08,2.08,0,0,1,.37-.71,1.53,1.53,0,0,1,.59-.45,1.83,1.83,0,0,1,.79-.16,1.88,1.88,0,0,1,.68.14,1.57,1.57,0,0,1,.64.51v-2.13h.71v5.85h-.69Zm0-1.64a2.11,2.11,0,0,0-.11-.79,1.06,1.06,0,0,0-.36-.48,1,1,0,0,0-.37-.2,1.25,1.25,0,0,0-.4-.06,1.3,1.3,0,0,0-.49.09,1,1,0,0,0-.39.29,1.41,1.41,0,0,0-.26.52,2.41,2.41,0,0,0-.1.76,2.55,2.55,0,0,0,.11.79,1.36,1.36,0,0,0,.26.51,1.21,1.21,0,0,0,.38.27,1.26,1.26,0,0,0,.43.08,1.44,1.44,0,0,0,.43-.06,1.12,1.12,0,0,0,.37-.2,1.23,1.23,0,0,0,.38-.49,1.94,1.94,0,0,0,.12-.74Z"/>
      </g>
      <path class="cls-3" d="M291.28,220.09H280.07a2.88,2.88,0,0,1-2.88-2.88V206a2.88,2.88,0,0,1,2.88-2.87h11.21a2.88,2.88,0,0,1,2.87,2.87v11.21A2.88,2.88,0,0,1,291.28,220.09Zm-11.21-16.21a2.12,2.12,0,0,0-2.13,2.12v11.21a2.13,2.13,0,0,0,2.13,2.13h11.21a2.12,2.12,0,0,0,2.12-2.13V206a2.12,2.12,0,0,0-2.12-2.12Z"/>
      <g>
        <path class="cls-3" d="M283.15,211.38l-1.91-2.76h.89l1.47,2.22,1.5-2.22h.81L284,211.41l2.11,3.06h-.88L283.56,212l-1.65,2.49h-.82Z"/>
        <path class="cls-3" d="M289.56,213.86a1.9,1.9,0,0,1-.6.54,1.62,1.62,0,0,1-.81.2,1.67,1.67,0,0,1-.81-.18,1.5,1.5,0,0,1-.56-.47,1.94,1.94,0,0,1-.33-.71,3.52,3.52,0,0,1,0-1.82,2.09,2.09,0,0,1,.38-.71,1.46,1.46,0,0,1,.59-.45,1.8,1.8,0,0,1,.79-.16,1.88,1.88,0,0,1,.68.14,1.57,1.57,0,0,1,.64.51v-2.13h.71v5.85h-.7Zm0-1.64a2.33,2.33,0,0,0-.11-.79,1.19,1.19,0,0,0-.73-.68,1.37,1.37,0,0,0-.89,0,1.11,1.11,0,0,0-.4.29,1.58,1.58,0,0,0-.26.52,2.78,2.78,0,0,0-.09.76,2.57,2.57,0,0,0,.1.79,1.53,1.53,0,0,0,.27.51,1.1,1.1,0,0,0,.38.27,1.26,1.26,0,0,0,.43.08,1.33,1.33,0,0,0,.42-.06,1.07,1.07,0,0,0,.38-.2,1.21,1.21,0,0,0,.37-.49,1.75,1.75,0,0,0,.13-.74Z"/>
      </g>
      <path class="cls-3" d="M316,220H304.77a2.88,2.88,0,0,1-2.88-2.87V205.89a2.88,2.88,0,0,1,2.88-2.87H316a2.88,2.88,0,0,1,2.88,2.87v11.22A2.88,2.88,0,0,1,316,220Zm-11.21-16.21a2.13,2.13,0,0,0-2.13,2.12v11.22a2.13,2.13,0,0,0,2.13,2.12H316a2.13,2.13,0,0,0,2.13-2.12V205.89a2.13,2.13,0,0,0-2.13-2.12Z"/>
      <g>
        <path class="cls-3" d="M309.28,208.58h.8l2.27,5.84h-.82l-.62-1.63h-2.5l-.62,1.63H307Zm1.4,3.56-1-2.71-1,2.71Z"/>
        <path class="cls-3" d="M313,208.58h.76v.82H313Zm0,1.61h.72v4.23H313Z"/>
      </g>
      <path class="cls-3" d="M340.68,220.09H329.47a2.88,2.88,0,0,1-2.88-2.88V206a2.88,2.88,0,0,1,2.88-2.87h11.21a2.88,2.88,0,0,1,2.88,2.87v11.21A2.88,2.88,0,0,1,340.68,220.09Zm-11.21-16.21a2.13,2.13,0,0,0-2.13,2.12v11.21a2.13,2.13,0,0,0,2.13,2.13h11.21a2.13,2.13,0,0,0,2.13-2.13V206a2.13,2.13,0,0,0-2.13-2.12Z"/>
      <g>
        <path class="cls-3" d="M330.94,208.62h2a3.27,3.27,0,0,1,1.07.14,1.73,1.73,0,0,1,.66.37,1.41,1.41,0,0,1,.34.56,2.52,2.52,0,0,1,0,1.37,1.41,1.41,0,0,1-.34.59,1.76,1.76,0,0,1-.67.4,3.11,3.11,0,0,1-1.05.15h-1.21v2.27h-.75Zm1.95,2.94a2.7,2.7,0,0,0,.7-.08,1.15,1.15,0,0,0,.44-.24,1,1,0,0,0,.22-.37,1.88,1.88,0,0,0,.06-.49,1.75,1.75,0,0,0-.07-.49.7.7,0,0,0-.23-.35.91.91,0,0,0-.44-.21,2.66,2.66,0,0,0-.69-.07h-1.19v2.3Z"/>
        <path class="cls-3" d="M336.3,213.23a.85.85,0,0,0,.38.62,1.68,1.68,0,0,0,.81.17,1.26,1.26,0,0,0,.77-.18.6.6,0,0,0,.22-.49.85.85,0,0,0,0-.23.4.4,0,0,0-.11-.2.57.57,0,0,0-.23-.15,1.77,1.77,0,0,0-.38-.11l-.54-.08a4.18,4.18,0,0,1-.63-.15,1.53,1.53,0,0,1-.46-.23.8.8,0,0,1-.28-.35,1.13,1.13,0,0,1-.1-.51,1.11,1.11,0,0,1,.13-.52,1.18,1.18,0,0,1,.35-.39,1.72,1.72,0,0,1,.53-.24,2.41,2.41,0,0,1,.67-.09,2.8,2.8,0,0,1,.77.09,1.38,1.38,0,0,1,.5.25,1,1,0,0,1,.3.36,2.75,2.75,0,0,1,.17.45l-.65.11a2.08,2.08,0,0,0-.13-.3.7.7,0,0,0-.2-.22.83.83,0,0,0-.3-.13,1.74,1.74,0,0,0-.43,0,1.83,1.83,0,0,0-.5.05.81.81,0,0,0-.31.14.52.52,0,0,0-.17.2.64.64,0,0,0-.05.24.59.59,0,0,0,0,.23.36.36,0,0,0,.12.18.68.68,0,0,0,.24.13,1.75,1.75,0,0,0,.41.1l.61.1a2.06,2.06,0,0,1,1.07.43,1.16,1.16,0,0,1,.32.88,1.18,1.18,0,0,1-.1.5,1.2,1.2,0,0,1-.32.39,1.6,1.6,0,0,1-.54.26,2.7,2.7,0,0,1-.74.1,3.24,3.24,0,0,1-.72-.08,1.76,1.76,0,0,1-.58-.23,1.27,1.27,0,0,1-.41-.42,1.3,1.3,0,0,1-.18-.64Z"/>
      </g>
      <g>
        <path class="cls-4" d="M226.83,93.11H181.66a5,5,0,0,0-4.33,2.5l-22.59,39.12a5,5,0,0,0,0,5l22.59,39.13a5,5,0,0,0,4.33,2.5h45.17a5,5,0,0,0,4.33-2.5l22.59-39.13a5,5,0,0,0,0-5L231.16,95.61A5,5,0,0,0,226.83,93.11Z"/>
        <path class="cls-2" d="M226.52,133a10,10,0,0,0-8.34-4.13l-2.11.19-6.57,4.77V116.92l-3.36-3.1a45,45,0,0,0-12.28,2.29v0h0l.09.93.18,2.14h0v0l4.59.81v9l-3.47-.3a15.75,15.75,0,0,0-16.51,16.31,16.35,16.35,0,0,0,3.91,11.2,12.51,12.51,0,0,0,9.93,4.37l6.15-4.59.92-.69a9.45,9.45,0,0,0,2.92,3.79,7.84,7.84,0,0,0,.83.49c1.19.27,2.36.49,3.51.65a33.83,33.83,0,0,0,4.73.38q8.12,0,13.09-4.87a16.77,16.77,0,0,0,5-12.5A16.26,16.26,0,0,0,226.52,133Zm-27.77,19.22a7.27,7.27,0,0,1-2.67.5,5.11,5.11,0,0,1-4.49-2.51,11.19,11.19,0,0,1-1.65-6.3q0-6.19,3.47-9.55a12.29,12.29,0,0,1,5.34,1.05Zm16.14,2.58-.48,0-1.25.1a11.52,11.52,0,0,1-3.66-.56V137.14a7,7,0,0,1,3-.74,5.12,5.12,0,0,1,4.46,2.54,11,11,0,0,1,1.68,6.2Q218.68,151.53,214.89,154.82Z"/>
      </g>
      <path class="cls-1" d="M108.83,132.15A16.77,16.77,0,0,0,77.22,142l3.52,24.9a4.17,4.17,0,0,0,2.82,3.39,4.42,4.42,0,0,0,1.34.22,4.21,4.21,0,0,0,3-1.23l17.81-17.75A16.76,16.76,0,0,0,108.83,132.15Zm-4.57,17.93L86.44,167.83a2.11,2.11,0,0,1-1.21.6l7.39-22.07a5.05,5.05,0,0,0,.88.08,5.88,5.88,0,1,0-2.78-.71L83.33,167.8a2.13,2.13,0,0,1-.61-1.21l-3.52-24.9a14.77,14.77,0,1,1,25.06,8.39Zm-14.62-9.49a3.86,3.86,0,1,1,3.86,3.85A3.86,3.86,0,0,1,89.64,140.59Z"/>
      <path class="cls-1" d="M80.58,175.13a22.27,22.27,0,0,1-9.36,13.24,10.41,10.41,0,0,1-14.6-3.21c-2.27-3.92-1.75-9.48-1.3-14.39.4-4.29.77-8.34-.73-10.93a7.14,7.14,0,0,0-7.28-3.39v2h0a5.16,5.16,0,0,1,5.5,2.39c1.18,2,.83,5.78.47,9.75-.48,5.2-1,11.1,1.57,15.59a12.39,12.39,0,0,0,16.79,4.25q.32-.18.63-.39a24.27,24.27,0,0,0,10.2-14.43Z"/>
      <rect class="cls-4" x="272.19" y="49.77" width="19.09" height="19.09"/>
      <rect class="cls-1" x="279.64" y="38.13" width="23.27" height="23.27"/>
      <path class="cls-3" d="M318.22,31.46v21a1,1,0,0,1-1,1H288.59a1,1,0,0,1-1-1v-21h-1.3v21a2.27,2.27,0,0,0,2.27,2.27h28.65a2.28,2.28,0,0,0,2.28-2.27v-21Z"/>
    </g>
  </g>
</svg>
